<?xml version="1.0" encoding="utf-8"?>
<!-- Generator: Adobe Illustrator 19.2.1, SVG Export Plug-In . SVG Version: 6.00 Build 0)  -->
<svg version="1.1" id="Слой_1" xmlns="http://www.w3.org/2000/svg" xmlns:xlink="http://www.w3.org/1999/xlink" x="0px" y="0px"
	 viewBox="0 0 173 126" style="enable-background:new 0 0 173 126;" xml:space="preserve">
<style type="text/css">
	.st0{fill:#FFFFFF;}
	.st1{fill:#F2DC7E;}
</style>
<g>
	<g>
		<path class="st0" d="M83.9,65.4h2.4v0c0,0.6,0.2,1.1,0.7,1.5c0.5,0.4,1.3,0.6,2.4,0.6c1,0,1.8-0.2,2.4-0.7c0.6-0.5,0.9-1,0.9-1.7
			c0-0.9-0.6-1.5-1.8-1.8l-1.2-0.4l-0.8-0.3l-1.6-0.5c-1.9-0.7-2.8-1.8-2.8-3.4c0-1.1,0.5-2.1,1.4-3c0.9-0.8,2.2-1.3,4-1.3
			c1.8,0,3,0.4,3.8,1.1c0.7,0.7,1.1,1.5,1.1,2.4v0.1h-2.4V58c0-0.5-0.2-0.9-0.7-1.1c-0.5-0.3-1.1-0.4-1.9-0.4
			c-0.9,0-1.7,0.2-2.2,0.6c-0.5,0.4-0.8,0.9-0.8,1.4c0,0.4,0.2,0.8,0.5,1.1c0.3,0.3,0.9,0.5,1.7,0.8l1.1,0.3l0.8,0.2
			c1.1,0.3,1.9,0.6,2.1,0.7c0.3,0.1,0.6,0.3,0.9,0.5c0.4,0.3,0.7,0.7,0.9,1.1c0.2,0.4,0.3,0.9,0.3,1.5c0,1.3-0.5,2.5-1.4,3.4
			c-1,0.9-2.4,1.4-4.2,1.4c-1.2,0-2.1-0.2-2.9-0.5c-0.8-0.3-1.4-0.8-1.8-1.4C84.1,66.9,83.9,66.2,83.9,65.4L83.9,65.4z"/>
		<path class="st0" d="M106.7,67.1v2c-1.1,0.3-2,0.4-2.6,0.4c-0.9,0-1.7-0.2-2.4-0.5c-0.7-0.4-1.3-0.9-1.6-1.5
			c-0.4-0.7-0.6-1.8-0.6-3.2v-7.3H97v-2h2.5v-3.4h2.4v3.4h4.1v2h-4.1v6.6c0,1.3,0.1,2.1,0.3,2.6c0.2,0.5,0.5,0.8,0.9,1.1
			c0.4,0.2,0.9,0.3,1.5,0.3C105.1,67.5,105.8,67.4,106.7,67.1z"/>
		<path class="st0" d="M111.9,69.1h-2.4V54.9h2.4v2.5c0.4-0.7,0.8-1.3,1.3-1.7c0.5-0.4,1-0.7,1.5-0.9c0.5-0.2,1.1-0.3,1.6-0.3
			c0.5,0,0.9,0.1,1.3,0.2v2.5c-0.6-0.3-1.2-0.4-1.8-0.4c-0.9,0-1.8,0.4-2.6,1.2c-0.8,0.8-1.3,2.2-1.3,4.1V69.1z"/>
		<path class="st0" d="M125.7,69.5c-1.9,0-3.4-0.6-4.8-1.9c-1.3-1.3-2-3.1-2-5.6c0-2.5,0.7-4.3,2-5.6c1.3-1.3,2.9-1.9,4.8-1.9
			c1.8,0,3.4,0.6,4.7,1.9c1.3,1.3,2,3.1,2,5.6c0,2.5-0.7,4.4-2,5.6C129.1,68.9,127.5,69.5,125.7,69.5z M125.7,67.5
			c1.3,0,2.3-0.5,3.1-1.5c0.8-1,1.2-2.4,1.2-4c0-1.6-0.4-3-1.2-4c-0.8-1-1.8-1.5-3.1-1.5c-1.3,0-2.3,0.5-3.1,1.5
			c-0.8,1-1.2,2.3-1.2,4c0,1.7,0.4,3,1.2,4C123.4,67,124.4,67.5,125.7,67.5z"/>
		<path class="st0" d="M140,68.5l-6.1-13.6h2.6l4.8,10.5l4.4-10.5h2.4l-6,14.2c-0.8,1.9-1.5,3.2-2,3.8c-0.5,0.6-1.1,1.1-1.7,1.3
			c-0.6,0.3-1.4,0.4-2.4,0.4h-1.8v-2h1.3c0.7,0,1.2-0.1,1.7-0.3c0.5-0.2,0.9-0.5,1.2-0.8c0.3-0.4,0.8-1.2,1.3-2.5L140,68.5z"/>
	</g>
	<g>
		<path class="st0" d="M102.2,92.9h-2.4V72.4h2.4v8.8c0.5-0.8,1-1.3,1.5-1.7c0.5-0.4,1-0.7,1.5-0.8c0.5-0.2,1.1-0.3,1.7-0.3
			c0.9,0,1.7,0.2,2.4,0.5c0.7,0.4,1.3,0.9,1.6,1.6c0.4,0.7,0.6,1.8,0.6,3.4v9h-2.4v-8c0-1.3-0.1-2.2-0.3-2.7c-0.2-0.5-0.5-0.9-1-1.2
			s-1-0.5-1.6-0.5c-0.7,0-1.4,0.2-2,0.6c-0.6,0.4-1.1,1-1.5,1.7c-0.4,0.7-0.6,1.8-0.6,3.1V92.9z"/>
		<path class="st0" d="M121.1,93.3c-1.9,0-3.4-0.6-4.8-1.9c-1.3-1.3-2-3.1-2-5.6c0-2.5,0.7-4.3,2-5.6c1.3-1.3,2.9-1.9,4.8-1.9
			c1.8,0,3.4,0.6,4.7,1.9c1.3,1.3,2,3.1,2,5.6c0,2.5-0.7,4.4-2,5.6C124.5,92.7,122.9,93.3,121.1,93.3z M121.1,91.3
			c1.3,0,2.3-0.5,3.1-1.5c0.8-1,1.2-2.4,1.2-4c0-1.6-0.4-3-1.2-4c-0.8-1-1.8-1.5-3.1-1.5c-1.3,0-2.3,0.5-3.1,1.5
			c-0.8,1-1.2,2.3-1.2,4c0,1.7,0.4,3,1.2,4C118.8,90.8,119.8,91.3,121.1,91.3z"/>
		<path class="st0" d="M139.9,78.7h2.4v14.2h-2.4v-2.5c-0.5,0.8-1,1.3-1.4,1.7c-0.5,0.4-1,0.7-1.5,0.9c-0.5,0.2-1.1,0.3-1.6,0.3
			c-1.3,0-2.4-0.4-3.3-1.1c-0.9-0.7-1.4-2.2-1.4-4.5v-9h2.4v8c0,2.1,0.3,3.3,0.8,3.8c0.5,0.4,1.2,0.7,2,0.7c0.7,0,1.4-0.2,2-0.6
			c0.6-0.4,1.1-1,1.5-1.7c0.4-0.7,0.5-1.8,0.5-3.1V78.7z"/>
		<path class="st0" d="M145.1,89.2h2.4v0c0,0.6,0.2,1.1,0.7,1.5c0.5,0.4,1.3,0.6,2.4,0.6c1,0,1.8-0.2,2.4-0.7c0.6-0.5,0.9-1,0.9-1.7
			c0-0.9-0.6-1.5-1.8-1.8l-1.2-0.4l-0.8-0.3l-1.6-0.5c-1.9-0.7-2.8-1.8-2.8-3.4c0-1.1,0.5-2.1,1.4-3c0.9-0.8,2.2-1.3,4-1.3
			c1.8,0,3,0.4,3.8,1.1c0.7,0.7,1.1,1.5,1.1,2.4v0.1h-2.4v-0.1c0-0.5-0.2-0.9-0.7-1.1c-0.5-0.3-1.1-0.4-1.9-0.4
			c-0.9,0-1.7,0.2-2.2,0.6c-0.5,0.4-0.8,0.9-0.8,1.4c0,0.4,0.2,0.8,0.5,1.1c0.3,0.3,0.9,0.5,1.7,0.8l1.1,0.3l0.8,0.2
			c1.1,0.3,1.9,0.6,2.1,0.7c0.3,0.1,0.6,0.3,0.9,0.5c0.4,0.3,0.7,0.7,0.9,1.1c0.2,0.4,0.3,0.9,0.3,1.5c0,1.3-0.5,2.5-1.4,3.4
			c-1,0.9-2.4,1.4-4.2,1.4c-1.2,0-2.1-0.2-2.9-0.5c-0.8-0.3-1.4-0.8-1.8-1.4C145.3,90.7,145.1,90,145.1,89.2L145.1,89.2z"/>
		<path class="st0" d="M168.5,89.2h2.4v0.1c0,0.6-0.3,1.3-0.8,1.9c-0.5,0.7-1.2,1.1-2,1.5c-0.8,0.3-1.8,0.5-2.8,0.5
			c-2.2,0-3.8-0.7-5-2.1c-1.2-1.4-1.8-3.2-1.8-5.3c0-2.2,0.6-4,1.9-5.4c1.2-1.4,2.8-2.2,4.8-2.2c1.1,0,2,0.2,2.9,0.7
			c0.9,0.5,1.6,1.2,2.1,2.2c0.5,1,0.8,2.4,0.8,4.1v0.8h-10.1c0,1.5,0.4,2.8,1.2,3.8c0.8,1,1.9,1.5,3.4,1.5c1,0,1.8-0.2,2.3-0.6
			c0.5-0.4,0.7-0.9,0.7-1.4V89.2z M161.1,84.3h7.7V84c0-0.7-0.2-1.3-0.5-1.9c-0.3-0.6-0.8-1.1-1.3-1.4c-0.6-0.3-1.2-0.4-2-0.4
			c-0.9,0-1.7,0.4-2.4,1.1C161.8,82.1,161.3,83.1,161.1,84.3z"/>
	</g>
	<g>
		<polygon class="st1" points="18.4,49.6 12.9,47.7 12.9,39.1 18.4,35.8 18.4,22.3 1.5,32.4 1.5,55.8 18.4,61.6 		"/>
		<polygon class="st1" points="48.3,4.5 35.3,12.2 35.3,25.6 48.3,17.9 83.8,39.1 83.8,46.9 94.9,49.4 94.9,32.4 		"/>
		<polygon class="st1" points="35.3,55.4 35.3,67.4 62.4,76.7 62.4,64.7 		"/>
		<polygon class="st1" points="79.4,82.5 83.8,84 83.8,91.2 48.3,112.5 12.9,91.2 12.9,83.4 1.5,79.6 1.5,97.9 48.3,125.8 
			94.9,97.9 94.9,75.9 79.4,70.6 		"/>
	</g>
	<polygon class="st1" points="48.9,29.4 31.4,40.1 31.4,0 22.3,4.4 22.3,86 31.4,91.4 31.4,51 48.9,40.2 66.3,51 66.3,90.6 
		75.5,85.4 75.5,45.6 	"/>
</g>
</svg>
